<svg width="225" height="42" viewBox="0 0 225 42" fill="none" xmlns="http://www.w3.org/2000/svg">
<path d="M25.9039 4.45642C23.1577 1.70291 19.3648 0 15.1737 0C6.79343 0 0 6.81166 0 15.2144V26.7846C0 27.9706 0.135008 29.1251 0.391326 30.2336C0.516551 30.7741 0.670146 31.3038 0.851135 31.8208C0.852113 31.8237 0.853091 31.8276 0.85407 31.8316C1.10061 32.5359 1.39801 33.2157 1.7414 33.868C1.90967 34.1878 2.08968 34.5017 2.27948 34.8077C2.74026 35.5513 3.26366 36.2527 3.84185 36.903C4.08251 37.1738 4.33296 37.4367 4.59222 37.6897C5.98338 39.0464 7.63282 40.1392 9.45934 40.8847C9.82327 41.0328 10.1941 41.1672 10.5717 41.2878C10.9356 41.4036 11.3064 41.5066 11.6821 41.5949C12.0763 41.6881 12.4755 41.7656 12.8805 41.8274C13.2435 41.8823 13.6103 41.9245 13.9801 41.9539C14.3402 41.9814 14.7051 41.9971 15.0729 41.999C15.1062 42 15.1404 42 15.1737 42C15.6511 42 16.1236 41.9784 16.5893 41.9333C16.9523 41.9009 17.3103 41.8548 17.6655 41.796C18.0225 41.7371 18.3747 41.6645 18.723 41.5802C21.0905 41.0122 23.2428 39.8871 25.0341 38.3499C25.3159 38.1086 25.5879 37.8565 25.851 37.5956H25.852C26.1093 37.3395 26.3588 37.0747 26.5965 36.801C26.933 36.4155 27.25 36.0133 27.5455 35.5954C27.7538 35.3021 27.9515 35.002 28.1383 34.6949C28.3252 34.3879 28.5023 34.073 28.6676 33.7513C29.0844 32.941 29.4317 32.0866 29.6997 31.1998C29.8073 30.8428 29.9022 30.4808 29.9844 30.1129C30.2221 29.0418 30.3483 27.9274 30.3483 26.7846V15.2144C30.3483 11.013 28.65 7.20992 25.9039 4.45642ZM1.87934 31.502C1.87641 31.4951 1.87445 31.4872 1.87152 31.4794L1.86858 31.4716L1.86565 31.4637C1.78445 31.2312 1.70912 30.9968 1.64064 30.7614C3.45639 29.799 5.57249 29.2468 7.8324 29.2468C10.2175 29.2468 12.4432 29.8618 14.3235 30.9252C13.5311 31.5069 12.8179 32.1651 12.2016 32.8841C10.8476 32.2769 9.35466 31.9601 7.8324 31.9601C6.00197 31.9601 4.20382 32.427 2.65515 33.2902C2.35383 32.7115 2.09457 32.1131 1.87934 31.502ZM5.02757 20.6851C4.23317 20.0053 3.77826 19.0175 3.77826 17.9738C3.77826 16.4278 4.76244 15.0663 6.22698 14.5866L6.45395 14.5121V14.6965H7.70326L6.56646 17.1135L7.53988 17.5736L8.89289 14.6965H11.6615L14.8704 18.2602V21.6749C14.3773 21.1962 13.8265 20.8068 13.2503 20.4899L12.0636 16.6152L11.0344 16.932L11.9433 19.8994C9.29987 18.9322 6.58015 19.147 6.40699 19.1617L6.49895 20.2368C6.52635 20.2349 7.75218 20.1387 9.30868 20.3663L8.09556 22.2948L9.0054 22.8707L10.4425 20.5851C11.0775 20.7381 11.732 20.9529 12.3561 21.2521L12.6829 21.4179C13.5135 21.8652 14.2736 22.4753 14.843 23.3062L14.8684 23.3435V24.0596C14.5026 24.2459 14.0946 24.345 13.6837 24.345C13.2102 24.345 12.7455 24.2165 12.3415 23.9723L11.8905 23.7015L11.6097 24.1469C10.9522 25.1867 9.82816 25.8076 8.60429 25.8076C6.64374 25.8076 5.05007 24.2087 5.05007 22.2438C5.05007 21.9064 5.098 21.5709 5.19192 21.2472L5.29073 20.9117L5.02561 20.6851H5.02757ZM25.1515 21.2452C25.2464 21.5729 25.2953 21.9093 25.2953 22.2438C25.2953 24.2087 23.6997 25.8076 21.7401 25.8076C20.5153 25.8076 19.3922 25.1867 18.7348 24.1469L18.454 23.7015L18.003 23.9723C17.5989 24.2165 17.1352 24.345 16.6617 24.345C16.4171 24.345 16.1784 24.3117 15.9466 24.244V23.0335C16.2674 22.6519 16.9425 21.9368 17.9501 21.3021C18.5626 20.9166 19.2004 20.6184 19.8608 20.4056L21.8429 22.9187L22.6871 22.2497L21.0113 20.126C22.0894 19.9465 23.2223 19.9798 24.4021 20.229L24.6232 19.1735C22.3848 18.7017 20.529 18.9999 19.0977 19.5374L19.8588 16.9271L18.8257 16.624L17.8014 20.1387C17.6371 20.2309 17.4815 20.3241 17.3358 20.4163C16.7791 20.7705 16.3164 21.1432 15.9466 21.4836V17.5873L19.1711 14.7004L21.9475 14.721L23.2849 17.3362L24.2427 16.8438L23.1616 14.7298L24.5049 14.7396C25.7542 15.3164 26.5681 16.5691 26.5681 17.9748C26.5681 19.0185 26.1122 20.0063 25.3188 20.6861L25.0537 20.9117L25.1505 21.2462L25.1515 21.2452ZM23.9012 13.6547L20.1719 13.6263L22.1403 11.4437L21.342 10.7197L19.2004 13.0946L18.8071 11.838L17.7799 12.1607L18.3503 13.9853L15.9466 16.1375V11.2838L18.0343 8.89126L17.2242 8.18105L15.3821 10.292L13.3276 8.22618L12.5655 8.98837L14.8694 11.3054V16.6505L12.5371 14.0598L13.4352 12.1019L12.4579 11.6516L11.7535 13.1888L9.40162 10.5755L8.60233 11.2985L10.691 13.6184H6.45395V13.6733C6.181 13.1593 6.03817 12.5835 6.03817 12.0018C6.03817 10.037 7.63184 8.43806 9.59239 8.43806C10.0786 8.43806 10.5511 8.53517 10.9953 8.72646L11.6889 9.02565L11.7447 8.2713C11.8807 6.42223 13.4372 4.97436 15.2881 4.97436C17.1391 4.97436 18.6506 6.35846 18.8257 8.19381L18.8923 8.88733L19.5448 8.64994C19.9312 8.50967 20.3382 8.43806 20.754 8.43806C22.7136 8.43806 24.3092 10.037 24.3092 12.0018C24.3092 12.5786 24.1683 13.1466 23.9012 13.6557V13.6547ZM3.19225 34.2378C3.19225 34.2378 3.18833 34.2309 3.18638 34.228C4.53547 33.4737 6.12719 33.0391 7.8324 33.0391C9.14921 33.0391 10.3975 33.299 11.5197 33.764C11.0168 34.4781 10.601 35.2354 10.2762 36.027C9.51119 35.7249 8.68451 35.5689 7.8324 35.5689C6.75234 35.5689 5.69086 35.8299 4.76244 36.3154C4.17643 35.6729 3.6501 34.9765 3.19225 34.2378ZM7.8324 36.648C8.57396 36.648 9.27835 36.7902 9.91425 37.0462C9.89175 37.1198 9.87023 37.1934 9.84969 37.267C9.62761 38.0645 9.49553 38.8835 9.45542 39.7085C8.031 39.0729 6.70831 38.1959 5.56271 37.1257C6.24655 36.8196 7.01746 36.648 7.8324 36.648ZM18.8111 40.4472C19.0194 39.6634 19.5331 38.962 20.2883 38.4549C20.9976 37.9791 21.8468 37.727 22.7439 37.727C22.7801 37.727 22.8163 37.727 22.8525 37.729C22.875 37.729 22.8975 37.73 22.92 37.7309H22.9288L22.9894 37.7339C23.0041 37.7339 23.0178 37.7349 23.0315 37.7358H23.0442L23.056 37.7378C23.1528 37.7437 23.2497 37.7535 23.3524 37.7672L23.3632 37.7692H23.3729C23.3857 37.7712 23.3984 37.7731 23.4101 37.7751L23.4189 37.777H23.4268C23.4385 37.779 23.4502 37.781 23.461 37.7829L23.4825 37.7869L23.504 37.7898C23.5187 37.7918 23.5334 37.7947 23.5481 37.7976L23.5598 37.7996L23.5715 37.8016C23.685 37.8222 23.7975 37.8467 23.9052 37.8761L23.913 37.8781C22.4005 39.0817 20.6718 39.9518 18.8111 40.4472ZM25.6612 36.2311C25.5086 36.4027 25.3501 36.5705 25.1877 36.7343L25.0938 36.8285C25.0155 36.906 24.9363 36.9835 24.8561 37.058C24.8306 37.0472 24.8042 37.0364 24.7788 37.0266C24.722 37.005 24.6653 36.9835 24.6086 36.9638C24.5469 36.9423 24.4863 36.9217 24.4237 36.902C24.3728 36.8864 24.3219 36.8716 24.271 36.8569C24.2417 36.8481 24.2133 36.8402 24.184 36.8334C24.045 36.7961 23.9032 36.7647 23.7594 36.7392C23.7251 36.7323 23.6909 36.7265 23.6567 36.7216C23.6302 36.7166 23.6029 36.7127 23.5745 36.7088C23.549 36.7049 23.5226 36.701 23.4972 36.698C23.3739 36.6813 23.2497 36.6686 23.1235 36.6607C23.0892 36.6578 23.055 36.6558 23.0198 36.6549C23.0129 36.6549 23.0061 36.6549 22.9983 36.6549C22.9581 36.6529 22.918 36.6519 22.8769 36.6509C22.8329 36.6499 22.7889 36.649 22.7439 36.649C21.5993 36.649 20.5417 36.9874 19.6896 37.5593C18.5939 38.295 17.8357 39.4182 17.6655 40.7022C17.6068 40.713 17.5481 40.7228 17.4894 40.7326C17.1851 40.7826 16.8779 40.8229 16.5688 40.8533C16.106 40.8994 15.6394 40.9219 15.1737 40.9219C15.113 40.9219 15.0524 40.9219 14.9917 40.92C15.0054 39.6546 15.4104 38.4235 16.1657 37.3543C16.7801 36.4832 17.6214 35.7328 18.6007 35.1834C19.8373 34.487 21.2696 34.1191 22.7439 34.1191C24.1263 34.1191 25.448 34.435 26.62 35.0392C26.3235 35.4532 26.0027 35.8515 25.6612 36.2321V36.2311ZM28.6695 30.8869C28.4299 31.6815 28.1197 32.4535 27.7441 33.1921C27.5807 33.5129 27.4056 33.8268 27.2187 34.1338C25.9068 33.4383 24.3777 33.0391 22.7439 33.0391C21.0299 33.0391 19.4294 33.4786 18.0754 34.2408C16.9523 34.8715 15.9974 35.7239 15.2881 36.7294C14.4409 37.9281 13.941 39.3456 13.9165 40.866C13.5575 40.8346 13.1994 40.7885 12.8433 40.7287C12.4236 40.6591 12.0069 40.5698 11.596 40.4609C11.3612 40.4001 11.1283 40.3334 10.8975 40.2598C10.7713 40.2196 10.6451 40.1774 10.5189 40.1333C10.5286 39.2455 10.6568 38.3833 10.8867 37.5583C10.9865 37.2003 11.1058 36.8501 11.2438 36.5077C11.5666 35.7043 11.9902 34.9441 12.5019 34.2408C12.5381 34.1917 12.5743 34.1417 12.6115 34.0936C12.6477 34.0446 12.6848 33.9965 12.723 33.9484C12.7592 33.9013 12.7964 33.8552 12.8335 33.8091C12.949 33.6669 13.0683 33.5276 13.1906 33.3913C14.075 32.4064 15.1414 31.5795 16.3134 30.9301C18.2828 29.8383 20.5476 29.2468 22.7439 29.2468C24.9402 29.2468 26.9653 29.7588 28.7361 30.6564C28.7155 30.7339 28.693 30.8104 28.6695 30.8869ZM22.7439 28.1677C20.7198 28.1677 18.6496 28.6278 16.7566 29.4979C16.4807 29.6244 16.2107 29.7588 15.9466 29.902V25.3544C16.1804 25.4015 16.4201 25.424 16.6617 25.424C17.1616 25.424 17.6547 25.322 18.1106 25.1268C18.9862 26.2372 20.3098 26.8866 21.7401 26.8866C24.2935 26.8866 26.3715 24.8041 26.3715 22.2438C26.3715 21.9191 26.3363 21.5954 26.2688 21.2747C27.1473 20.4046 27.6453 19.2196 27.6453 17.9738C27.6453 16.1689 26.6141 14.5572 25.0263 13.792C25.2621 13.227 25.3853 12.6179 25.3853 12.0008C25.3853 9.44058 23.3074 7.35804 20.754 7.35804C20.4282 7.35804 20.1073 7.3914 19.7933 7.4581C19.308 5.38733 17.4708 3.89434 15.2881 3.89434C13.1055 3.89434 11.2428 5.4354 10.7732 7.51009C10.3897 7.40905 9.99448 7.35804 9.59239 7.35804C7.03898 7.35804 4.96202 9.44058 4.96202 12.0008C4.96202 12.6169 5.08431 13.226 5.32008 13.7911C3.73228 14.5572 2.70211 16.1689 2.70211 17.9738C2.70211 19.2196 3.19909 20.4046 4.07762 21.2747C4.01012 21.5925 3.97588 21.9172 3.97588 22.2438C3.97588 24.8041 6.05284 26.8866 8.60625 26.8866C10.0365 26.8866 11.3602 26.2372 12.2358 25.1268C12.6917 25.322 13.1848 25.424 13.6857 25.424C14.0887 25.424 14.4898 25.3573 14.8704 25.2279V29.9962C12.7651 28.7965 10.3555 28.1677 7.8324 28.1677C5.54509 28.1677 3.33899 28.6886 1.37258 29.6853C1.17496 28.7367 1.07615 27.7665 1.07615 26.7846V15.2144C1.07615 11.4388 2.54167 7.88873 5.20464 5.21959C7.86762 2.54947 11.4072 1.07904 15.1737 1.07904C18.9402 1.07904 22.4797 2.54947 25.1427 5.21959C27.8057 7.88971 29.2722 11.4388 29.2722 15.2144V26.7846C29.2722 27.7293 29.1793 28.6661 28.9953 29.5823C27.0788 28.6533 24.9441 28.1677 22.7439 28.1677Z" fill="url(#paint0_linear_607_3469)"/>
<path d="M39.8438 26.2441C38.7891 26.2441 37.7962 26.1595 36.8652 25.9902V12.9238C37.7246 12.8197 38.7207 12.7676 39.8535 12.7676C40.9928 12.7676 42.0215 12.9238 42.9395 13.2363C43.8639 13.5423 44.6354 13.9818 45.2539 14.5547C46.5039 15.7005 47.1289 17.3053 47.1289 19.3691C47.1289 21.6803 46.4323 23.4349 45.0391 24.6328C43.7891 25.707 42.0573 26.2441 39.8438 26.2441ZM39.4043 23.8613C39.8275 23.9395 40.2507 23.9785 40.6738 23.9785C41.097 23.9785 41.5527 23.8971 42.041 23.7344C42.5293 23.5651 42.9525 23.3047 43.3105 22.9531C44.0788 22.2109 44.4629 21.1302 44.4629 19.7109C44.4629 17.3802 43.6133 15.9479 41.9141 15.4141C41.3542 15.2383 40.7064 15.1504 39.9707 15.1504H39.707C39.6094 15.1504 39.5085 15.1536 39.4043 15.1602V23.8613Z" fill="white"/>
<path d="M58.3332 23.6562C58.7368 23.6562 59.0168 23.6172 59.173 23.5391L59.2121 23.5488L59.1145 26H51.8V12.9434C51.9758 12.9564 52.1711 12.9661 52.3859 12.9727L53.0695 12.9922C53.5253 13.0052 54.0201 13.0117 54.5539 13.0117C56.0448 13.0117 57.5194 12.9857 58.9777 12.9336C58.9061 13.5065 58.8703 14.2715 58.8703 15.2285C58.8703 15.3327 58.8768 15.4108 58.8898 15.4629L58.8703 15.4922C58.5318 15.3945 58.05 15.3457 57.425 15.3457H54.3488V17.8359H56.6633C57.3794 17.8359 57.8091 17.8164 57.9523 17.7773L57.9816 20.1895C57.6691 20.1569 57.2655 20.1406 56.7707 20.1406H54.3488V23.6562H58.3332Z" fill="white"/>
<path d="M71.4613 13.7344L71.2758 16.6055L71.2074 16.625C70.7257 15.9023 69.9053 15.4336 68.7465 15.2188C68.3819 15.1471 68.0303 15.1113 67.6918 15.1113C67.3598 15.1113 67.0733 15.1406 66.8324 15.1992C66.598 15.2578 66.3962 15.3424 66.227 15.4531C65.8689 15.6875 65.6898 15.9935 65.6898 16.3711C65.6898 16.8659 65.8461 17.237 66.1586 17.4844C66.5492 17.7839 67.197 17.9954 68.102 18.1191C69.0069 18.2363 69.7328 18.3991 70.2797 18.6074C70.8266 18.8158 71.2758 19.0794 71.6273 19.3984C72.2914 19.9974 72.6234 20.8438 72.6234 21.9375C72.6234 23.3698 72.0831 24.4733 71.0023 25.248C70.0779 25.9121 68.9125 26.2441 67.5062 26.2441C66.3734 26.2441 65.2536 26.0293 64.1469 25.5996C63.7823 25.4564 63.4633 25.2904 63.1898 25.1016L63.2973 21.8398L63.3363 21.8105C64.1436 23.2038 65.4685 23.9004 67.3109 23.9004C68.6195 23.9004 69.4854 23.5846 69.9086 22.9531C70.0518 22.7383 70.1234 22.5007 70.1234 22.2402C70.1234 21.9733 70.0811 21.7552 69.9965 21.5859C69.9118 21.4102 69.7719 21.2604 69.5766 21.1367C69.199 20.8893 68.5642 20.7233 67.6723 20.6387C66.7803 20.554 66.0512 20.3945 65.4848 20.1602C64.9184 19.9258 64.4659 19.6361 64.1273 19.291C63.5154 18.666 63.2094 17.7936 63.2094 16.6738C63.2094 15.515 63.6163 14.5775 64.4301 13.8613C65.2569 13.1322 66.3702 12.7676 67.7699 12.7676C69.1762 12.7676 70.4066 13.0898 71.4613 13.7344Z" fill="white"/>
<path d="M83.6129 23.6562C84.0165 23.6562 84.2965 23.6172 84.4527 23.5391L84.4918 23.5488L84.3941 26H77.0797V12.9434C77.2555 12.9564 77.4508 12.9661 77.6656 12.9727L78.3492 12.9922C78.805 13.0052 79.2997 13.0117 79.8336 13.0117C81.3245 13.0117 82.7991 12.9857 84.2574 12.9336C84.1858 13.5065 84.15 14.2715 84.15 15.2285C84.15 15.3327 84.1565 15.4108 84.1695 15.4629L84.15 15.4922C83.8115 15.3945 83.3297 15.3457 82.7047 15.3457H79.6285V17.8359H81.943C82.6591 17.8359 83.0888 17.8164 83.232 17.7773L83.2613 20.1895C82.9488 20.1569 82.5452 20.1406 82.0504 20.1406H79.6285V23.6562H83.6129Z" fill="white"/>
<path d="M93.0984 20.9512C92.9031 20.9642 92.6948 20.9707 92.4734 20.9707C92.2521 20.9707 91.9233 20.9544 91.4871 20.9219V26H88.8992V12.9434C89.8107 12.8262 90.9305 12.7676 92.2586 12.7676C94.0685 12.7676 95.4161 13.1029 96.3016 13.7734C97.1935 14.4375 97.6395 15.4661 97.6395 16.8594C97.6395 17.9401 97.2326 18.8646 96.4188 19.6328C96.1518 19.8802 95.8458 20.0951 95.5008 20.2773L97.493 24.4766C97.8836 25.3424 98.1831 25.8568 98.3914 26.0195L98.3426 26.0684C97.7111 25.9642 96.7182 25.9674 95.3641 26.0781L93.0984 20.9512ZM92.4441 15.0723C92.1121 15.0723 91.7931 15.0885 91.4871 15.1211V18.8516C91.8061 18.8971 92.1805 18.9199 92.6102 18.9199C93.0398 18.9199 93.4012 18.8841 93.6941 18.8125C93.9871 18.7344 94.241 18.6172 94.4559 18.4609C94.9181 18.1159 95.1492 17.5983 95.1492 16.9082C95.1492 16.2181 94.9083 15.7331 94.4266 15.4531C93.9773 15.1992 93.3165 15.0723 92.4441 15.0723Z" fill="white"/>
<path d="M107.047 26.0586C106.734 26.0195 105.93 26 104.635 26H104.322V15.1992H102.389C101.816 15.1992 101.477 15.2285 101.373 15.2871C101.269 15.3457 101.188 15.3978 101.129 15.4434L101.1 15.4336V12.9336L101.129 12.9043C101.344 12.9759 101.923 13.0117 102.867 13.0117H108.99C109.563 13.0117 109.902 12.9824 110.006 12.9238C110.11 12.8652 110.191 12.8132 110.25 12.7676L110.279 12.7773V15.2773L110.25 15.3066C110.035 15.235 109.456 15.1992 108.512 15.1992H107.047V26.0586Z" fill="white"/>
<path d="M133.323 18.168C133.199 18.3893 133.137 18.9199 133.137 19.7598V22.7871C133.137 23.7051 132.662 24.5026 131.711 25.1797C130.728 25.8893 129.524 26.2441 128.098 26.2441C126.119 26.2441 124.54 25.6224 123.362 24.3789C122.222 23.194 121.653 21.6836 121.653 19.8477C121.653 17.8945 122.232 16.2669 123.391 14.9648C124.687 13.5 126.47 12.7676 128.743 12.7676C130.26 12.7676 131.461 13.0605 132.346 13.6465L132.19 16.5273L132.112 16.5469C131.884 16.1497 131.435 15.8242 130.764 15.5703C130.126 15.3294 129.455 15.209 128.752 15.209C128.056 15.209 127.444 15.3197 126.916 15.541C126.396 15.7624 125.953 16.0781 125.588 16.4883C124.82 17.3281 124.436 18.4382 124.436 19.8184C124.436 21.0228 124.774 21.9896 125.452 22.7188C126.129 23.4414 127.001 23.8027 128.069 23.8027C129.247 23.8027 130.041 23.4967 130.452 22.8848C130.582 22.6895 130.647 22.4681 130.647 22.2207V20.5996H129.387C128.71 20.5996 128.342 20.6582 128.284 20.7754L128.254 20.7656L128.166 18.2168C128.349 18.2689 129.088 18.2949 130.383 18.2949H131.536C132.252 18.2949 132.838 18.2461 133.293 18.1484L133.323 18.168Z" fill="white"/>
<path d="M141.939 20.9512C141.744 20.9642 141.535 20.9707 141.314 20.9707C141.093 20.9707 140.764 20.9544 140.328 20.9219V26H137.74V12.9434C138.651 12.8262 139.771 12.7676 141.099 12.7676C142.909 12.7676 144.257 13.1029 145.142 13.7734C146.034 14.4375 146.48 15.4661 146.48 16.8594C146.48 17.9401 146.073 18.8646 145.259 19.6328C144.992 19.8802 144.686 20.0951 144.341 20.2773L146.334 24.4766C146.724 25.3424 147.024 25.8568 147.232 26.0195L147.183 26.0684C146.552 25.9642 145.559 25.9674 144.205 26.0781L141.939 20.9512ZM141.285 15.0723C140.953 15.0723 140.634 15.0885 140.328 15.1211V18.8516C140.647 18.8971 141.021 18.9199 141.451 18.9199C141.88 18.9199 142.242 18.8841 142.535 18.8125C142.828 18.7344 143.082 18.6172 143.296 18.4609C143.759 18.1159 143.99 17.5983 143.99 16.9082C143.99 16.2181 143.749 15.7331 143.267 15.4531C142.818 15.1992 142.157 15.0723 141.285 15.0723Z" fill="white"/>
<path d="M157.733 23.6562C158.137 23.6562 158.417 23.6172 158.573 23.5391L158.612 23.5488L158.514 26H151.2V12.9434C151.376 12.9564 151.571 12.9661 151.786 12.9727L152.47 12.9922C152.925 13.0052 153.42 13.0117 153.954 13.0117C155.445 13.0117 156.919 12.9857 158.378 12.9336C158.306 13.5065 158.27 14.2715 158.27 15.2285C158.27 15.3327 158.277 15.4108 158.29 15.4629L158.27 15.4922C157.932 15.3945 157.45 15.3457 156.825 15.3457H153.749V17.8359H156.063C156.779 17.8359 157.209 17.8164 157.352 17.7773L157.382 20.1895C157.069 20.1569 156.665 20.1406 156.171 20.1406H153.749V23.6562H157.733Z" fill="white"/>
<path d="M169.553 23.6562C169.956 23.6562 170.236 23.6172 170.393 23.5391L170.432 23.5488L170.334 26H163.02V12.9434C163.195 12.9564 163.391 12.9661 163.605 12.9727L164.289 12.9922C164.745 13.0052 165.24 13.0117 165.773 13.0117C167.264 13.0117 168.739 12.9857 170.197 12.9336C170.126 13.5065 170.09 14.2715 170.09 15.2285C170.09 15.3327 170.096 15.4108 170.109 15.4629L170.09 15.4922C169.751 15.3945 169.27 15.3457 168.645 15.3457H165.568V17.8359H167.883C168.599 17.8359 169.029 17.8164 169.172 17.7773L169.201 20.1895C168.889 20.1569 168.485 20.1406 167.99 20.1406H165.568V23.6562H169.553Z" fill="white"/>
<path d="M174.927 26C174.966 25.7786 174.986 25.5378 174.986 25.2773V13.0117H176.939L182.114 21.1562V13.6758C182.114 13.3177 182.082 13.0964 182.017 13.0117H184.654C184.621 13.2721 184.605 13.5586 184.605 13.8711V26H182.573L177.476 18.1777V26H174.927Z" fill="white"/>
<path d="M190.223 12.9727C190.874 12.9987 191.268 13.0117 191.405 13.0117H192.108C192.453 13.0117 192.73 12.9857 192.938 12.9336L192.928 26H190.223V12.9727Z" fill="white"/>
<path d="M198.488 26C198.527 25.7786 198.546 25.5378 198.546 25.2773V13.0117H200.5L205.675 21.1562V13.6758C205.675 13.3177 205.643 13.0964 205.578 13.0117H208.214C208.182 13.2721 208.166 13.5586 208.166 13.8711V26H206.134L201.037 18.1777V26H198.488Z" fill="white"/>
<path d="M224.184 18.168C224.061 18.3893 223.999 18.9199 223.999 19.7598V22.7871C223.999 23.7051 223.524 24.5026 222.573 25.1797C221.59 25.8893 220.386 26.2441 218.96 26.2441C216.981 26.2441 215.402 25.6224 214.223 24.3789C213.084 23.194 212.514 21.6836 212.514 19.8477C212.514 17.8945 213.094 16.2669 214.253 14.9648C215.548 13.5 217.332 12.7676 219.604 12.7676C221.121 12.7676 222.322 13.0605 223.208 13.6465L223.052 16.5273L222.973 16.5469C222.746 16.1497 222.296 15.8242 221.626 15.5703C220.988 15.3294 220.317 15.209 219.614 15.209C218.917 15.209 218.305 15.3197 217.778 15.541C217.257 15.7624 216.815 16.0781 216.45 16.4883C215.682 17.3281 215.298 18.4382 215.298 19.8184C215.298 21.0228 215.636 21.9896 216.313 22.7188C216.99 23.4414 217.863 23.8027 218.93 23.8027C220.109 23.8027 220.903 23.4967 221.313 22.8848C221.443 22.6895 221.509 22.4681 221.509 22.2207V20.5996H220.249C219.572 20.5996 219.204 20.6582 219.145 20.7754L219.116 20.7656L219.028 18.2168C219.21 18.2689 219.949 18.2949 221.245 18.2949H222.397C223.113 18.2949 223.699 18.2461 224.155 18.1484L224.184 18.168Z" fill="white"/>
<defs>
<linearGradient id="paint0_linear_607_3469" x1="15.1742" y1="0" x2="15.1742" y2="42" gradientUnits="userSpaceOnUse">
<stop stop-color="#48F509"/>
<stop offset="1" stop-color="#1C9D49"/>
</linearGradient>
</defs>
</svg>
