<svg width="22" height="23" viewBox="0 0 22 23" fill="none" xmlns="http://www.w3.org/2000/svg">
<path d="M4.00436 5.45568L0.761719 2.21304L2.17593 0.798828L5.41857 4.04147H20.6603C21.2126 4.04147 21.6603 4.48918 21.6603 5.04147C21.6603 5.13879 21.6461 5.23559 21.6182 5.32881L19.2182 13.3289C19.0913 13.7518 18.7019 14.0415 18.2603 14.0415H6.00436V16.0415H17.0044V18.0415H5.00436C4.45207 18.0415 4.00436 17.5938 4.00436 17.0415V5.45568ZM5.50436 22.0415C4.67593 22.0415 4.00436 21.3699 4.00436 20.5415C4.00436 19.7131 4.67593 19.0415 5.50436 19.0415C6.33279 19.0415 7.00436 19.7131 7.00436 20.5415C7.00436 21.3699 6.33279 22.0415 5.50436 22.0415ZM17.5044 22.0415C16.6759 22.0415 16.0044 21.3699 16.0044 20.5415C16.0044 19.7131 16.6759 19.0415 17.5044 19.0415C18.3328 19.0415 19.0044 19.7131 19.0044 20.5415C19.0044 21.3699 18.3328 22.0415 17.5044 22.0415Z" fill="white"/>
</svg>
