<svg width="16" height="14" viewBox="0 0 16 14" fill="none" xmlns="http://www.w3.org/2000/svg">
<path fill-rule="evenodd" clip-rule="evenodd" d="M6 0.333008C4.15905 0.333008 2.66667 1.82539 2.66667 3.66634C2.66667 5.50729 4.15905 6.99967 6 6.99967C7.84095 6.99967 9.33333 5.50729 9.33333 3.66634C9.33333 1.82539 7.84095 0.333008 6 0.333008ZM4 3.66634C4 2.56177 4.89543 1.66634 6 1.66634C7.10457 1.66634 8 2.56177 8 3.66634C8 4.77091 7.10457 5.66634 6 5.66634C4.89543 5.66634 4 4.77091 4 3.66634Z" fill="white"/>
<path d="M3.33333 8.33301C2.44928 8.33301 1.60143 8.6842 0.976311 9.30932C0.35119 9.93444 0 10.7823 0 11.6663V12.9997C0 13.3679 0.298477 13.6663 0.666667 13.6663C1.03486 13.6663 1.33333 13.3679 1.33333 12.9997V11.6663C1.33333 11.1359 1.54405 10.6272 1.91912 10.2521C2.29419 9.87706 2.8029 9.66634 3.33333 9.66634H8.66667C9.1971 9.66634 9.70581 9.87706 10.0809 10.2521C10.456 10.6272 10.6667 11.1359 10.6667 11.6663V12.9997C10.6667 13.3679 10.9651 13.6663 11.3333 13.6663C11.7015 13.6663 12 13.3679 12 12.9997V11.6663C12 10.7823 11.6488 9.93444 11.0237 9.30932C10.3986 8.6842 9.55072 8.33301 8.66667 8.33301H3.33333Z" fill="white"/>
<path d="M12.6878 8.91968C12.7799 8.56318 13.1435 8.3488 13.5 8.44085C14.2151 8.62549 14.8486 9.04239 15.3011 9.62611C15.7536 10.2098 15.9994 10.9273 16 11.6658V12.9997C16 13.3679 15.7015 13.6663 15.3333 13.6663C14.9651 13.6663 14.6667 13.3679 14.6667 12.9997V11.6668C14.6663 11.2238 14.5188 10.7932 14.2474 10.443C13.9759 10.0928 13.5957 9.84263 13.1667 9.73184C12.8102 9.63979 12.5958 9.27618 12.6878 8.91968Z" fill="white"/>
<path d="M10.832 0.440511C10.4753 0.349186 10.1122 0.564301 10.0208 0.920985C9.92951 1.27767 10.1446 1.64085 10.5013 1.73218C10.9315 1.84233 11.3128 2.09253 11.5851 2.44333C11.8574 2.79414 12.0052 3.22559 12.0052 3.66968C12.0052 4.11376 11.8574 4.54522 11.5851 4.89602C11.3128 5.24683 10.9315 5.49703 10.5013 5.60718C10.1446 5.6985 9.92951 6.06169 10.0208 6.41837C10.1122 6.77505 10.4753 6.99017 10.832 6.89884C11.549 6.71526 12.1846 6.29826 12.6384 5.71359C13.0922 5.12891 13.3386 4.40982 13.3386 3.66968C13.3386 2.92954 13.0922 2.21044 12.6384 1.62577C12.1846 1.0411 11.549 0.624095 10.832 0.440511Z" fill="white"/>
</svg>
