<svg width="33" height="33" viewBox="0 0 33 33" fill="none" xmlns="http://www.w3.org/2000/svg">
<path d="M25.6223 9.66229C26.526 9.66229 27.3929 9.30339 28.032 8.6643C28.671 8.02525 29.03 7.15836 29.03 6.2546C29.03 5.3509 28.6711 4.4842 28.032 3.84515C27.3929 3.2061 26.526 2.84717 25.6223 2.84717C24.7186 2.84717 23.8519 3.20607 23.2128 3.84515C22.5738 4.48423 22.2148 5.35109 22.2148 6.25486C22.2159 7.1581 22.5753 8.02421 23.2141 8.663C23.8529 9.30181 24.719 9.66125 25.6222 9.66222L25.6223 9.66229Z" fill="white"/>
<path d="M21.787 9.84094L19.5236 12.1043C19.3036 12.3268 19.3049 12.6852 19.5259 12.9065C19.7471 13.1277 20.1055 13.129 20.3283 12.909L22.5917 10.6456C22.8114 10.4231 22.8104 10.0647 22.5891 9.84348C22.3679 9.62225 22.0095 9.62097 21.787 9.84094Z" fill="white"/>
<path d="M29.5865 3.41618C29.7373 3.41643 29.8821 3.35649 29.9888 3.24956L32.2646 0.973734C32.4846 0.75123 32.4833 0.39284 32.2623 0.171604C32.0411 -0.049626 31.6827 -0.0509006 31.4599 0.169064L29.1841 2.44489C29.0216 2.6077 28.9728 2.8523 29.0609 3.0649C29.1488 3.27749 29.3564 3.41618 29.5865 3.41618Z" fill="white"/>
<path d="M21.7878 3.23723C21.8942 3.34492 22.0392 3.40589 22.1909 3.4064C22.3423 3.40665 22.4878 3.34671 22.5947 3.23952C22.7019 3.13259 22.7619 2.98705 22.7614 2.83566C22.7611 2.68403 22.7001 2.53899 22.5924 2.43257L20.329 0.169166C20.2226 0.0614741 20.0776 0.000507988 19.9259 8.04218e-07C19.7746 -0.000253243 19.629 0.0596906 19.5221 0.166877C19.4149 0.273809 19.355 0.419351 19.3555 0.570732C19.3557 0.722367 19.4167 0.867402 19.5244 0.973826L21.7878 3.23723Z" fill="white"/>
<path d="M29.1842 9.8415C29.0775 9.94817 29.0176 10.093 29.0176 10.2438C29.0176 10.3947 29.0775 10.5395 29.1842 10.6462L31.46 12.922C31.6825 13.1419 32.0409 13.1407 32.2622 12.9194C32.4834 12.6982 32.4844 12.3398 32.2647 12.1173L29.9889 9.84149C29.7666 9.61924 29.4065 9.61925 29.1842 9.8415Z" fill="white"/>
<path d="M25.0352 11.3815V12.5194C25.0352 12.8336 25.2899 13.0883 25.6041 13.0883C25.9183 13.0883 26.1731 12.8336 26.1731 12.5194V11.3815C26.1731 11.0673 25.9183 10.8125 25.6041 10.8125C25.2899 10.8125 25.0352 11.0673 25.0352 11.3815Z" fill="white"/>
<path d="M25.6041 2.27827C25.755 2.27827 25.8998 2.21832 26.0064 2.11164C26.1131 2.00496 26.1731 1.86018 26.1731 1.70931V0.571397C26.1731 0.257204 25.9183 0.00244141 25.6041 0.00244141C25.2899 0.00244141 25.0352 0.257204 25.0352 0.571397V1.70931C25.0352 1.86018 25.0951 2.00496 25.2018 2.11164C25.3085 2.21832 25.4532 2.27827 25.6041 2.27827Z" fill="white"/>
<path d="M31.2928 6.83017C31.607 6.83017 31.8618 6.57541 31.8618 6.26122C31.8618 5.94702 31.607 5.69226 31.2928 5.69226H30.1549C29.8407 5.69226 29.5859 5.94702 29.5859 6.26122C29.5859 6.57541 29.8407 6.83017 30.1549 6.83017H31.2928Z" fill="white"/>
<path d="M19.9147 6.83029H21.0526C21.3668 6.83029 21.6215 6.57553 21.6215 6.26134C21.6215 5.94715 21.3668 5.69238 21.0526 5.69238H19.9147C19.6005 5.69238 19.3457 5.94715 19.3457 6.26134C19.3457 6.57553 19.6005 6.83029 19.9147 6.83029Z" fill="white"/>
<path d="M32.4309 31.2953H27.3102V29.5884H27.3407C28.2808 29.5884 29.0171 28.6898 29.0171 27.5427V26.7437C29.0171 26.4295 28.7623 26.1747 28.4481 26.1747C28.1339 26.1747 27.8792 26.4295 27.8792 26.7437V27.5427C27.8792 28.0619 27.5947 28.4505 27.3407 28.4505H27.3102V26.1747C27.3102 25.8605 27.0555 25.6057 26.7413 25.6057C26.4271 25.6057 26.1723 25.8605 26.1723 26.1747V28.4505H26.1418C25.8878 28.4505 25.6034 28.0622 25.6034 27.5427V26.7437C25.6034 26.4295 25.3486 26.1747 25.0344 26.1747C24.7202 26.1747 24.4655 26.4295 24.4655 26.7437V27.5427C24.4655 28.6898 25.2018 29.5884 26.1418 29.5884H26.1723V31.2953H19.9476C16.6903 30.928 15.4287 29.8729 13.3432 28.1277C13.1984 28.0065 13.0506 27.8831 12.8994 27.7571C16.5085 24.4645 20.5046 24.464 24.7285 24.4678H25.0343C29.7671 24.4678 32.7104 21.5793 32.8332 21.4565C32.9425 21.3472 32.8795 17.2556 32.7466 17.1669C30.3253 15.5525 27.8839 14.665 25.4907 14.5289L25.4904 14.5292C23.5501 14.4217 21.6142 14.805 19.8613 15.6437C18.1402 16.4652 16.6018 17.6236 15.3363 19.0504C14.7074 18.6519 14.0671 18.2191 13.4212 17.7494C10.0517 15.2988 6.68085 14.9458 4.44665 15.0814C2.0225 15.2282 0.401987 15.9542 0.333907 15.9847V15.9844C0.0479074 16.1142 -0.078843 16.4515 0.0509505 16.7378C0.180744 17.024 0.5178 17.1508 0.804053 17.021C0.819039 17.0141 2.33542 16.3413 4.5617 16.2145C7.52358 16.0456 10.2797 16.8716 12.7521 18.6697V18.6695C15.4264 20.6204 18.3481 22.2071 21.4405 23.3885C18.2025 23.5645 14.9727 24.2645 12.0101 27.0298C11.2784 26.4448 10.4428 25.8144 9.41987 25.1324C7.80878 24.0585 6.35134 23.6323 5.12168 23.5421V21.6231H5.15216C6.09169 21.6231 6.82801 20.7245 6.82801 19.5774V18.7784C6.82801 18.4642 6.57325 18.2094 6.25906 18.2094C5.94486 18.2094 5.6901 18.4642 5.6901 18.7784V19.5774C5.6901 20.0966 5.40562 20.4852 5.15163 20.4852H5.12115V18.2094C5.12115 17.8952 4.86639 17.6405 4.55219 17.6405C4.238 17.6405 3.98324 17.8952 3.98324 18.2094V20.4852H3.95276C3.69876 20.4852 3.41428 20.0969 3.41428 19.5774V18.7784C3.41428 18.4642 3.15952 18.2094 2.84533 18.2094C2.53113 18.2094 2.27637 18.4642 2.27637 18.7784V19.5774C2.27637 20.7245 3.0127 21.6231 3.95274 21.6231H3.98322V23.5512C3.56921 23.5888 3.15977 23.665 2.76 23.7788C1.14332 24.2411 0.206071 25.1646 0.166926 25.2037C0.0561848 25.3145 0.000557114 31.7074 0.000557114 31.8641C0.000557114 32.015 0.060501 32.1597 0.16718 32.2664C0.273859 32.3731 0.418639 32.433 0.569513 32.433H32.431C32.7452 32.433 33 32.1783 33 31.8641C33 31.5499 32.7452 31.2951 32.431 31.2951L32.4309 31.2953Z" fill="white"/>
</svg>
