<svg width="32" height="28" viewBox="0 0 32 28" fill="none" xmlns="http://www.w3.org/2000/svg">
<g clip-path="url(#clip0_437_3464)">
<path d="M23.7343 25.9795C21.9701 27.3803 18.487 29.0396 14.1678 27.1512C11.189 25.8474 9.62646 24.3952 8.89563 23.545C7.68392 22.5083 7.27465 21.7389 7.27465 21.7389C5.96794 19.7552 4.56767 18.1077 3.29457 16.7964C3.2858 16.7906 3.27995 16.7817 3.27264 16.7744C1.39149 15.005 0 14.1064 0 14.1064L0.463344 13.8612C2.878 11.8833 7.44713 12.2269 9.73608 13.8891C12.0221 15.5513 13.9427 17.6422 16.2653 18.6906C18.5879 19.7361 19.9165 20.2324 19.9165 20.2324C16.6292 23.2675 10.3354 18.6994 10.3354 18.6994C10.9887 20.1443 11.7093 21.272 12.4694 22.1486C17.2256 27.6549 23.4493 23.1485 23.4493 23.1485L26.0525 21.3057C26.4925 21.1222 26.8681 21.0179 27.1882 20.968C28.5037 20.7654 28.8794 21.4922 28.8794 21.4922C28.8794 21.4922 25.4971 24.5772 23.7358 25.978L23.7343 25.9795Z" fill="white"/>
<path d="M24.9642 19.6201L22.361 21.46C22.361 21.46 17.0318 25.3144 12.4685 21.5363C12.4773 21.5452 12.4875 21.5569 12.4963 21.5672C12.3004 21.3675 12.109 21.1531 11.916 20.9226C16.3945 24.8049 21.8085 21.0723 21.8085 21.0723L24.4541 19.2942C26.0298 18.6775 26.7796 19.0431 27.088 19.3191C26.6553 19.1929 25.9801 19.1929 24.9642 19.6201Z" fill="white"/>
<path d="M27.7913 20.1135C27.7913 20.1135 27.5589 20.3249 27.1861 20.6626C26.866 20.7111 26.4904 20.8154 26.0504 21.0004L23.4472 22.8431C23.4472 22.8431 17.2484 27.3319 12.4965 21.874C12.4878 21.8652 12.4775 21.8535 12.4688 21.8432C17.032 25.6213 22.3612 21.7668 22.3612 21.7668L24.9644 19.927C25.9803 19.5012 26.6556 19.5012 27.0897 19.626C27.6144 19.7758 27.7913 20.1135 27.7913 20.1135Z" fill="white"/>
<path d="M13.6121 15.1622C17.1888 15.3898 21.9991 14.265 27.4408 9.77335C25.2864 11.4091 19.0524 14.4985 13.1576 13.5793C13.1576 13.5778 13.1576 13.5764 13.1576 13.5749C13.1532 13.5778 13.1488 13.5793 13.1444 13.5823C11.7836 9.72636 13.0567 5.13483 13.8767 3.47559C11.5658 7.71178 11.4255 11.0963 12.0306 13.4765C8.75798 11.274 6.04076 7.31973 15.429 0C14.666 1.83838 16.6962 5.05847 16.7401 8.16404C21.6059 4.8485 28.958 8.5972 32.0012 6.58703C24.063 22.1516 17.6595 19.3 13.6136 15.1622H13.6121Z" fill="white"/>
</g>
<defs>
<clipPath id="clip0_437_3464">
<rect width="32" height="28" fill="white"/>
</clipPath>
</defs>
</svg>
