<svg width="34" height="33" viewBox="0 0 34 33" fill="none" xmlns="http://www.w3.org/2000/svg">
<path d="M22.4589 15.546C23.1415 13.8832 24.9614 13.0078 26.6557 13.2559C26.0292 11.9917 25.0034 10.9627 23.74 10.3356C25.3675 6.10213 21.6539 1.23152 16.9321 1.99919C14.0479 -1.74781 8.10095 0.120673 7.74406 4.71694C2.16485 2.17874 -2.16152 9.19882 1.96172 13.1024C-3.25003 18.3029 2.81233 27.0773 9.75342 23.2419C10.604 23.7678 11.5875 24.0946 12.641 24.1597V20.3115L7.4781 16.0844C6.96709 15.6533 7.64266 14.9311 8.17127 15.3493L12.641 19.0079V11.3411C12.641 11.07 12.8757 10.8512 13.166 10.8512C13.4565 10.8512 13.6909 11.0702 13.6909 11.3411V16.091L18.1607 12.4324C18.3777 12.2528 18.7102 12.2756 18.9026 12.4782C19.095 12.6807 19.0706 12.9911 18.8536 13.1706L13.6906 17.3978V24.1405C15.3917 23.9576 16.8898 23.0919 17.9084 21.8245C18.0483 21.8997 18.185 21.9683 18.3283 22.0303C18.4333 21.8179 18.5525 21.609 18.6958 21.4064C16.9281 18.7965 19.1543 15.1116 22.4584 15.5462L22.4589 15.546Z" fill="white"/>
<path d="M12.6407 24.1636V31.7551C12.6512 32.3986 13.6803 32.3986 13.6908 31.7551V24.1403C13.3478 24.1763 12.9871 24.1892 12.6407 24.163V24.1636Z" fill="white"/>
<path d="M32.0204 19.8842C32.9235 17.5682 30.8582 14.8568 28.2716 15.2914C26.6824 13.2269 23.4063 14.2558 23.2102 16.7876C20.1441 15.383 17.75 19.267 20.025 21.4066C17.1479 24.252 20.5045 29.116 24.3162 26.9928C24.7257 27.2411 25.1808 27.4109 25.6708 27.4763V25.4804L22.9058 23.2166C22.3948 22.7854 23.0703 22.0633 23.5989 22.4814L25.6711 24.1767V20.4398C25.6816 19.7963 26.7107 19.7963 26.7212 20.4398V22.5696L28.7933 20.8743C29.3182 20.4562 29.9975 21.1781 29.4865 21.6095L26.7248 23.8733V27.4503C27.5613 27.2968 28.2998 26.8492 28.8109 26.2123C31.1455 27.4831 34.0577 25.6472 33.9982 23.0664C33.9982 21.6682 33.1932 20.4628 32.0205 19.8813L32.0204 19.8842Z" fill="white"/>
<path d="M25.6758 27.4757V31.6832C25.6863 32.3267 26.7154 32.3267 26.7259 31.6832V27.4497C26.3863 27.5151 26.0189 27.5281 25.6758 27.4759V27.4757Z" fill="white"/>
</svg>
