<svg width="15" height="16" viewBox="0 0 15 16" fill="none" xmlns="http://www.w3.org/2000/svg">
<rect y="0.5" width="15" height="15" rx="1.5" fill="#ECA30C"/>
<path d="M14.8656 8.375C14.8656 4.36133 11.6137 1.10938 7.6 1.10938C3.58633 1.10938 0.334375 4.36133 0.334375 8.375C0.334375 12.0078 2.97109 15.0254 6.45742 15.5527V10.4844H4.61172V8.375H6.45742V6.79297C6.45742 4.97656 7.54141 3.95117 9.18203 3.95117C10.0023 3.95117 10.8227 4.09766 10.8227 4.09766V5.88477H9.91445C9.00625 5.88477 8.71328 6.44141 8.71328 7.02734V8.375H10.7348L10.4125 10.4844H8.71328V15.5527C12.1996 15.0254 14.8656 12.0078 14.8656 8.375Z" fill="white"/>
</svg>
