<svg width="15" height="16" viewBox="0 0 15 16" fill="none" xmlns="http://www.w3.org/2000/svg">
<rect y="0.5" width="15" height="15" rx="1.5" fill="#ECA30C"/>
<path d="M7.6 5.00586C5.725 5.00586 4.23086 6.5293 4.23086 8.375C4.23086 10.25 5.725 11.7441 7.6 11.7441C9.4457 11.7441 10.9691 10.25 10.9691 8.375C10.9691 6.5293 9.4457 5.00586 7.6 5.00586ZM7.6 10.5723C6.39883 10.5723 5.40273 9.60547 5.40273 8.375C5.40273 7.17383 6.36953 6.20703 7.6 6.20703C8.80117 6.20703 9.76797 7.17383 9.76797 8.375C9.76797 9.60547 8.80117 10.5723 7.6 10.5723ZM11.8773 4.88867C11.8773 4.44922 11.5258 4.09766 11.0863 4.09766C10.6469 4.09766 10.2953 4.44922 10.2953 4.88867C10.2953 5.32812 10.6469 5.67969 11.0863 5.67969C11.5258 5.67969 11.8773 5.32812 11.8773 4.88867ZM14.1039 5.67969C14.0453 4.625 13.8109 3.6875 13.0492 2.92578C12.2875 2.16406 11.35 1.92969 10.2953 1.87109C9.21133 1.8125 5.95937 1.8125 4.87539 1.87109C3.8207 1.92969 2.9125 2.16406 2.12148 2.92578C1.35977 3.6875 1.12539 4.625 1.0668 5.67969C1.0082 6.76367 1.0082 10.0156 1.0668 11.0996C1.12539 12.1543 1.35977 13.0625 2.12148 13.8535C2.9125 14.6152 3.8207 14.8496 4.87539 14.9082C5.95937 14.9668 9.21133 14.9668 10.2953 14.9082C11.35 14.8496 12.2875 14.6152 13.0492 13.8535C13.8109 13.0625 14.0453 12.1543 14.1039 11.0996C14.1625 10.0156 14.1625 6.76367 14.1039 5.67969ZM12.6977 12.2422C12.4926 12.8281 12.0238 13.2676 11.4672 13.502C10.5883 13.8535 8.5375 13.7656 7.6 13.7656C6.6332 13.7656 4.58242 13.8535 3.73281 13.502C3.14687 13.2676 2.70742 12.8281 2.47305 12.2422C2.12148 11.3926 2.20937 9.3418 2.20937 8.375C2.20937 7.4375 2.12148 5.38672 2.47305 4.50781C2.70742 3.95117 3.14687 3.51172 3.73281 3.27734C4.58242 2.92578 6.6332 3.01367 7.6 3.01367C8.5375 3.01367 10.5883 2.92578 11.4672 3.27734C12.0238 3.48242 12.4633 3.95117 12.6977 4.50781C13.0492 5.38672 12.9613 7.4375 12.9613 8.375C12.9613 9.3418 13.0492 11.3926 12.6977 12.2422Z" fill="white"/>
</svg>
