<svg width="12" height="14" viewBox="0 0 12 14" fill="none" xmlns="http://www.w3.org/2000/svg">
<path fill-rule="evenodd" clip-rule="evenodd" d="M6 0.333008C4.15905 0.333008 2.66667 1.82539 2.66667 3.66634C2.66667 5.50729 4.15905 6.99967 6 6.99967C7.84095 6.99967 9.33333 5.50729 9.33333 3.66634C9.33333 1.82539 7.84095 0.333008 6 0.333008ZM4 3.66634C4 2.56177 4.89543 1.66634 6 1.66634C7.10457 1.66634 8 2.56177 8 3.66634C8 4.77091 7.10457 5.66634 6 5.66634C4.89543 5.66634 4 4.77091 4 3.66634Z" fill="white"/>
<path d="M3.33333 8.33301C2.44928 8.33301 1.60143 8.6842 0.976311 9.30932C0.351189 9.93444 0 10.7823 0 11.6663V12.9997C0 13.3679 0.298477 13.6663 0.666667 13.6663C1.03486 13.6663 1.33333 13.3679 1.33333 12.9997V11.6663C1.33333 11.1359 1.54405 10.6272 1.91912 10.2521C2.29419 9.87706 2.8029 9.66634 3.33333 9.66634H8.66667C9.1971 9.66634 9.70581 9.87706 10.0809 10.2521C10.456 10.6272 10.6667 11.1359 10.6667 11.6663V12.9997C10.6667 13.3679 10.9651 13.6663 11.3333 13.6663C11.7015 13.6663 12 13.3679 12 12.9997V11.6663C12 10.7823 11.6488 9.93444 11.0237 9.30932C10.3986 8.6842 9.55072 8.33301 8.66667 8.33301H3.33333Z" fill="white"/>
</svg>
