<svg width="14" height="14" viewBox="0 0 14 14" fill="none" xmlns="http://www.w3.org/2000/svg">
<path d="M13.2958 12.0084L10.8075 9.52012C10.6831 9.42059 10.5338 9.34594 10.3845 9.34594H9.98641C10.6582 8.47504 11.0812 7.3802 11.0812 6.16094C11.0812 3.3243 8.74227 0.985313 5.90562 0.985313C3.0441 0.985313 0.73 3.3243 0.73 6.16094C0.73 9.02246 3.0441 11.3366 5.90562 11.3366C7.1 11.3366 8.19484 10.9384 9.09062 10.2417V10.6647C9.09062 10.814 9.14039 10.9633 9.2648 11.0877L11.7282 13.5511C11.977 13.8 12.3503 13.8 12.5742 13.5511L13.2709 12.8544C13.5198 12.6305 13.5198 12.2572 13.2958 12.0084ZM5.90562 9.34594C4.13895 9.34594 2.72062 7.92762 2.72062 6.16094C2.72062 4.41914 4.13895 2.97594 5.90562 2.97594C7.64742 2.97594 9.09062 4.41914 9.09062 6.16094C9.09062 7.92762 7.64742 9.34594 5.90562 9.34594Z" fill="white"/>
</svg>
