<svg width="16" height="16" viewBox="0 0 16 16" fill="none" xmlns="http://www.w3.org/2000/svg">
<rect y="0.5" width="15" height="15" rx="1.5" fill="#ECA30C"/>
<path d="M13.5473 5.32812C14.1332 4.88867 14.6605 4.36133 15.0707 3.74609C14.5434 3.98047 13.9281 4.15625 13.3129 4.21484C13.9574 3.83398 14.4262 3.24805 14.6605 2.51562C14.0746 2.86719 13.4008 3.13086 12.727 3.27734C12.141 2.66211 11.35 2.31055 10.4711 2.31055C8.77187 2.31055 7.39492 3.6875 7.39492 5.38672C7.39492 5.62109 7.42422 5.85547 7.48281 6.08984C4.93398 5.94336 2.64883 4.71289 1.12539 2.86719C0.861719 3.30664 0.715234 3.83398 0.715234 4.41992C0.715234 5.47461 1.24258 6.41211 2.09219 6.96875C1.59414 6.93945 1.09609 6.82227 0.685937 6.58789V6.61719C0.685937 8.11133 1.74062 9.3418 3.14687 9.63477C2.9125 9.69336 2.61953 9.75195 2.35586 9.75195C2.15078 9.75195 1.975 9.72266 1.76992 9.69336C2.15078 10.9238 3.29336 11.8027 4.64102 11.832C3.58633 12.6523 2.26797 13.1504 0.832422 13.1504C0.56875 13.1504 0.334375 13.1211 0.0999999 13.0918C1.44766 13.9707 3.05898 14.4688 4.8168 14.4688C10.4711 14.4688 13.5473 9.81055 13.5473 5.73828C13.5473 5.5918 13.5473 5.47461 13.5473 5.32812Z" fill="white"/>
</svg>
