<svg width="17" height="16" viewBox="0 0 17 16" fill="none" xmlns="http://www.w3.org/2000/svg">
<rect x="1" y="0.5" width="15" height="15" rx="1.5" fill="#ECA30C"/>
<path d="M16.2465 4.53711C16.0707 3.83398 15.5141 3.27734 14.8402 3.10156C13.5805 2.75 8.6 2.75 8.6 2.75C8.6 2.75 3.59023 2.75 2.33047 3.10156C1.65664 3.27734 1.1 3.83398 0.924219 4.53711C0.572657 5.76758 0.572657 8.4043 0.572657 8.4043C0.572657 8.4043 0.572657 11.0117 0.924219 12.2715C1.1 12.9746 1.65664 13.502 2.33047 13.6777C3.59023 14 8.6 14 8.6 14C8.6 14 13.5805 14 14.8402 13.6777C15.5141 13.502 16.0707 12.9746 16.2465 12.2715C16.598 11.0117 16.598 8.4043 16.598 8.4043C16.598 8.4043 16.598 5.76758 16.2465 4.53711ZM6.95938 10.7773V6.03125L11.1195 8.4043L6.95938 10.7773Z" fill="white"/>
</svg>
