<svg width="20" height="27" viewBox="0 0 20 27" fill="none" xmlns="http://www.w3.org/2000/svg">
<path d="M9.47311 4.47767L4.59344 0.884213C4.21695 0.606936 3.77562 0.443859 3.31742 0.412711C2.85923 0.381562 2.40171 0.483534 1.9946 0.707542C1.5875 0.93155 1.24639 1.26902 1.00836 1.68326C0.770331 2.09751 0.644495 2.57267 0.644531 3.05709V23.9438C0.644495 24.4282 0.770331 24.9034 1.00836 25.3176C1.24639 25.7319 1.5875 26.0693 1.9946 26.2933C2.40171 26.5174 2.85923 26.6193 3.31742 26.5882C3.77562 26.557 4.21695 26.394 4.59344 26.1167L9.47311 22.5232L18.7739 15.6727C19.1055 15.4285 19.3763 15.1035 19.5633 14.7253C19.7503 14.347 19.8479 13.9267 19.8479 13.5001C19.8479 13.0735 19.7503 12.6532 19.5633 12.275C19.3763 11.8967 19.1055 11.5717 18.7739 11.3275L9.47311 4.47767Z" fill="#009368"/>
</svg>
