<svg width="103" height="103" viewBox="0 0 103 103" fill="none" xmlns="http://www.w3.org/2000/svg">
<rect opacity="0.3" width="103" height="103" rx="51.5" fill="white"/>
<rect x="10.4746" y="10.4746" width="82.0508" height="82.0508" rx="41.0254" fill="white"/>
<path d="M52.4731 42.4777L47.5934 38.8842C47.217 38.6069 46.7756 38.4439 46.3174 38.4127C45.8592 38.3816 45.4017 38.4835 44.9946 38.7075C44.5875 38.9316 44.2464 39.269 44.0084 39.6833C43.7703 40.0975 43.6445 40.5727 43.6445 41.0571V61.9438C43.6445 62.4282 43.7703 62.9034 44.0084 63.3176C44.2464 63.7319 44.5875 64.0693 44.9946 64.2933C45.4017 64.5174 45.8592 64.6193 46.3174 64.5882C46.7756 64.557 47.217 64.394 47.5934 64.1167L52.4731 60.5232L61.7739 53.6727C62.1055 53.4285 62.3763 53.1035 62.5633 52.7253C62.7503 52.347 62.8479 51.9267 62.8479 51.5001C62.8479 51.0735 62.7503 50.6532 62.5633 50.275C62.3763 49.8967 62.1055 49.5717 61.7739 49.3275L52.4731 42.4777Z" fill="#009368"/>
</svg>
